<svg enable-background="new 0 0 512 512" height="512" viewBox="0 0 512 512" width="512"
	xmlns="http://www.w3.org/2000/svg">
	<g>
		<circle cx="238.682" cy="256" fill="#E8CB5A" r="200.928"/>
		<path fill="#ffdf63" d="m307.884 67.307c55.216 35.809 91.743 97.99 91.743 168.702 0 110.97-89.959 200.928-200.928 200.928-24.318 0-47.627-4.321-69.202-12.235 31.435 20.387 68.927 32.227 109.185 32.227 110.97 0 200.928-89.959 200.928-200.928.001-86.652-54.851-160.492-131.726-188.694z"/>
		<path fill="#ffdf63" d="m312.472 298.769c0-35.602-28.964-64.566-64.565-64.566h-18.449c-11.564 0-20.971-9.407-20.971-20.97s9.408-20.971 20.971-20.971h18.449c8.451 0 16.039 5.03 19.331 12.814 4.69 11.088 17.485 16.272 28.566 11.585 11.088-4.69 16.274-17.48 11.585-28.566-8.464-20.011-26.153-34.105-46.91-38.202v-16.517c0-12.039-9.759-21.797-21.797-21.797s-21.797 9.759-21.797 21.797v16.521c-29.604 5.866-51.993 32.035-51.993 63.336 0 35.601 28.964 64.565 64.566 64.565h18.449c11.564 0 20.97 9.408 20.97 20.971s-9.407 20.97-20.97 20.97h-18.449c-8.714 0-16.388-5.243-19.552-13.357-4.375-11.215-17.012-16.763-28.227-12.389s-16.762 17.012-12.389 28.227c8.182 20.981 26.159 35.725 47.595 39.904v16.5c0 12.039 9.759 21.797 21.797 21.797s21.797-9.759 21.797-21.797v-16.521c29.604-5.866 51.993-32.035 51.993-63.334z"/>
		<path fill="#E8CB5A" d="m277.403 168.103c4.689 11.087-.497 23.877-11.585 28.566-1.198.507-2.417.898-3.643 1.179 2.137 1.982 3.879 4.426 5.064 7.227 4.69 11.088 17.485 16.272 28.566 11.585 11.088-4.69 16.274-17.48 11.585-28.566-7.517-17.771-22.31-30.877-40.066-36.456 4.094 4.867 7.511 10.394 10.079 16.465z"/>
		<path fill="#E8CB5A" d="m267.247 237.161c9.503 11.246 15.238 25.774 15.238 41.616 0 27.387-17.142 50.846-41.259 60.213-6.418 2.493-10.733 8.558-10.733 15.443v4.2c0 9.141-5.627 16.968-13.606 20.206.118 12.228 10.304 22.048 22.667 21.566 11.78-.459 20.926-10.507 20.926-22.296v-16.005c29.603-5.867 51.992-32.035 51.992-63.335 0-28.867-19.042-53.37-45.225-61.608z"/>
		<circle cx="365.909" cy="256" fill="#ffdf63" r="20.306"/>
		<circle cx="111.456" cy="256" fill="#ffdf63" r="20.306"/>
		<path fill="#292800" d="m247.907 226.706h-18.449c-7.43 0-13.475-6.044-13.475-13.474s6.045-13.475 13.475-13.475h18.449c5.432 0 10.31 3.233 12.427 8.238 6.306 14.907 23.479 21.876 38.392 15.569 14.877-6.293 21.861-23.515 15.569-38.391-8.52-20.144-25.571-35.181-46.318-41.17v-10.628c0-16.153-13.141-29.294-29.294-29.294s-29.294 13.141-29.294 29.294v10.638c-30.47 8.832-51.993 37.011-51.993 69.219 0 39.735 32.327 72.062 72.063 72.062h18.449c7.429 0 13.474 6.045 13.474 13.475 0 7.429-6.044 13.474-13.474 13.474h-18.449c-5.601 0-10.534-3.37-12.568-8.585-5.87-15.048-22.885-22.517-37.936-16.649-15.048 5.869-22.517 22.886-16.649 37.936 8.267 21.199 25.613 36.944 47.083 43.084v10.596c0 16.153 13.141 29.294 29.294 29.294s29.294-13.141 29.294-29.294v-10.64c4.22-1.226 8.326-2.84 12.263-4.824 3.697-1.863 5.184-6.371 3.321-10.069-1.863-3.697-6.371-5.183-10.069-3.321-4.581 2.309-9.449 3.984-14.469 4.978-3.511.695-6.04 3.775-6.04 7.354v16.521c0 7.885-6.415 14.3-14.3 14.3s-14.3-6.415-14.3-14.3v-16.5c0-3.587-2.541-6.672-6.062-7.358-19.173-3.738-34.891-16.923-42.045-35.269-2.864-7.347.782-15.655 8.128-18.52 7.344-2.865 15.653.781 18.519 8.128 4.295 11.013 14.711 18.13 26.536 18.13h18.449c15.697 0 28.467-12.77 28.467-28.467s-12.77-28.468-28.467-28.468h-18.449c-31.468 0-57.069-25.601-57.069-57.068 0-27.162 19.326-50.706 45.953-55.982 3.511-.695 6.04-3.775 6.04-7.354v-16.521c0-7.885 6.415-14.3 14.3-14.3s14.3 6.415 14.3 14.3v16.517c0 3.581 2.532 6.662 6.045 7.355 18.566 3.664 34.063 16.287 41.457 33.767 3.072 7.262-.338 15.669-7.601 18.742-7.273 3.076-15.661-.32-18.741-7.601-4.468-10.564-14.767-17.39-26.236-17.39h-18.449c-15.697 0-28.468 12.771-28.468 28.468s12.771 28.467 28.468 28.467h18.449c31.467 0 57.068 25.601 57.068 57.069 0 10.524-2.9 20.811-8.387 29.751-2.166 3.529-1.061 8.145 2.468 10.311 3.53 2.165 8.145 1.061 10.311-2.468 6.936-11.301 10.602-24.301 10.602-37.594 0-39.736-32.327-72.063-72.062-72.063z"/>
		<path fill="#292800" d="m338.106 256c0 15.331 12.472 27.803 27.803 27.803 15.33 0 27.802-12.472 27.802-27.803s-12.472-27.803-27.802-27.803c-15.331 0-27.803 12.472-27.803 27.803zm40.612 0c0 7.063-5.746 12.809-12.809 12.809s-12.809-5.746-12.809-12.809 5.746-12.809 12.809-12.809 12.809 5.746 12.809 12.809z"/>
		<path fill="#292800" d="m111.456 228.197c-15.331 0-27.803 12.472-27.803 27.803s12.472 27.803 27.803 27.803 27.803-12.472 27.803-27.803-12.472-27.803-27.803-27.803zm0 40.612c-7.063 0-12.809-5.746-12.809-12.809s5.746-12.809 12.809-12.809 12.809 5.746 12.809 12.809-5.746 12.809-12.809 12.809z"/>
		<path fill="#292800" d="m239.276 47.573c-.271-.001-.543-.002-.814-.002-119.872 0-208.508 99.78-208.508 209.121 0 110.512 90.69 207.754 208.835 207.754 115.957 0 208.331-94.713 208.331-208.696 0-.272-.001-.544-.002-.816-.442-112.864-92.109-206.909-207.842-207.361zm142.585 78.499-8.127 6.819c-3.171 2.661-3.585 7.39-.924 10.562 2.648 3.156 7.375 3.597 10.562.924l8.137-6.827c3.829 4.929 7.425 10.048 10.772 15.34l-9.221 5.324c-3.585 2.07-4.814 6.655-2.744 10.241 2.077 3.597 6.666 4.809 10.241 2.744l9.243-5.336c2.914 5.51 5.57 11.177 7.951 16.985l-10.056 3.66c-3.891 1.416-5.897 5.718-4.481 9.609 1.42 3.899 5.727 5.894 9.609 4.481l10.07-3.665c1.903 5.921 3.528 11.966 4.859 18.118l-10.557 1.861c-4.077.719-6.8 4.607-6.081 8.685.719 4.077 4.607 6.8 8.685 6.081l10.55-1.86c.835 6.143 1.381 12.376 1.623 18.686h-10.702c-4.14 0-7.497 3.356-7.497 7.497 0 4.14 3.356 7.497 7.497 7.497h10.701c-.242 6.31-.788 12.544-1.623 18.686l-10.55-1.86c-4.074-.715-7.965 2.004-8.685 6.081-.719 4.077 2.004 7.966 6.081 8.685l10.557 1.861c-1.331 6.153-2.956 12.197-4.859 18.118l-10.07-3.665c-3.89-1.417-8.193.59-9.609 4.481-1.416 3.89.59 8.192 4.481 9.609l10.056 3.66c-2.381 5.808-5.037 11.474-7.951 16.984l-9.243-5.336c-3.586-2.071-8.171-.841-10.241 2.744-2.07 3.586-.842 8.171 2.744 10.241l9.221 5.324c-3.347 5.292-6.943 10.411-10.773 15.34l-8.137-6.828c-3.172-2.662-7.901-2.249-10.561.924-2.661 3.171-2.248 7.9.924 10.561l8.128 6.82c-4.202 4.626-8.625 9.049-13.251 13.251l-6.82-8.127c-2.662-3.172-7.391-3.585-10.562-.924-3.172 2.661-3.585 7.39-.924 10.562l6.827 8.137c-4.929 3.829-10.048 7.426-15.34 10.773l-5.324-9.221c-2.071-3.586-6.655-4.814-10.241-2.744s-4.814 6.655-2.744 10.241l5.336 9.243c-5.51 2.914-11.177 5.57-16.985 7.951l-3.66-10.056c-1.417-3.891-5.719-5.898-9.609-4.48-3.89 1.416-5.896 5.718-4.48 9.609l3.665 10.069c-5.921 1.903-11.966 3.528-18.118 4.859l-1.861-10.557c-.719-4.077-4.606-6.798-8.685-6.081-4.077.719-6.8 4.607-6.081 8.685l1.86 10.55c-6.143.835-12.376 1.381-18.686 1.622v-10.7c0-4.14-3.356-7.497-7.497-7.497s-7.497 3.356-7.497 7.497v10.7c-6.31-.242-12.544-.788-18.686-1.622l1.86-10.55c.719-4.077-2.004-7.966-6.081-8.685-4.074-.716-7.965 2.004-8.685 6.081l-1.861 10.557c-6.153-1.331-12.197-2.956-18.118-4.859l3.665-10.069c1.416-3.89-.59-8.192-4.481-9.609-3.892-1.417-8.193.59-9.609 4.481l-3.66 10.055c-5.807-2.381-11.474-5.037-16.985-7.951l5.337-9.243c2.07-3.585.842-8.17-2.744-10.241-3.587-2.071-8.17-.842-10.241 2.744l-5.324 9.221c-5.292-3.347-10.411-6.943-15.34-10.773l6.828-8.137c2.661-3.171 2.248-7.9-.924-10.561s-7.9-2.249-10.561.924l-6.82 8.128c-4.627-4.202-9.049-8.625-13.252-13.252l8.128-6.82c3.172-2.661 3.585-7.39.924-10.561-2.661-3.172-7.39-3.586-10.561-.924l-8.137 6.828c-3.829-4.93-7.426-10.049-10.773-15.34l9.221-5.324c3.586-2.07 4.814-6.655 2.744-10.241s-6.656-4.814-10.241-2.744l-9.243 5.337c-2.914-5.51-5.57-11.177-7.951-16.985l10.056-3.66c3.891-1.416 5.897-5.718 4.481-9.609-1.417-3.891-5.72-5.898-9.609-4.481l-10.069 3.665c-1.903-5.921-3.528-11.966-4.859-18.118l10.557-1.862c4.077-.719 6.8-4.607 6.081-8.685-.719-4.077-4.606-6.798-8.685-6.081l-10.55 1.86c-.835-6.143-1.381-12.376-1.623-18.686h10.701c4.14 0 7.497-3.356 7.497-7.497 0-4.14-3.356-7.497-7.497-7.497h-10.7c.242-6.31.788-12.544 1.623-18.687l10.55 1.86c4.078.719 7.966-2.004 8.685-6.081s-2.004-7.966-6.081-8.685l-10.557-1.861c1.331-6.153 2.956-12.197 4.859-18.118l10.069 3.665c3.898 1.419 8.196-.598 9.609-4.481 1.416-3.89-.59-8.192-4.481-9.609l-10.056-3.66c2.381-5.808 5.037-11.475 7.951-16.985l9.243 5.336c3.571 2.063 8.162.856 10.241-2.744 2.07-3.586.841-8.171-2.744-10.241l-9.221-5.324c3.347-5.292 6.943-10.411 10.773-15.34l8.137 6.827c3.192 2.679 7.918 2.227 10.562-.924 2.661-3.171 2.248-7.9-.924-10.562l-8.127-6.82c4.202-4.626 8.625-9.049 13.251-13.251l6.82 8.128c2.653 3.162 7.381 3.593 10.561.924 3.172-2.661 3.585-7.39.924-10.561l-6.828-8.137c4.929-3.829 10.049-7.426 15.34-10.773l5.324 9.221c2.077 3.597 6.666 4.809 10.241 2.744 3.586-2.07 4.814-6.655 2.744-10.241l-5.337-9.243c5.51-2.914 11.177-5.57 16.985-7.951l3.66 10.055c1.42 3.899 5.727 5.894 9.609 4.481 3.891-1.416 5.897-5.718 4.481-9.609l-3.665-10.069c5.921-1.903 11.966-3.528 18.118-4.859l1.861 10.557c.719 4.077 4.607 6.8 8.685 6.081 4.077-.719 6.8-4.607 6.081-8.685l-1.86-10.55c6.143-.835 12.376-1.381 18.686-1.622v10.7c0 4.14 3.356 7.497 7.497 7.497s7.497-3.356 7.497-7.497v-10.7c6.31.242 12.544.788 18.686 1.622l-1.86 10.55c-.719 4.077 2.004 7.966 6.081 8.685 4.078.719 7.966-2.004 8.685-6.081l1.861-10.557c6.153 1.331 12.197 2.956 18.118 4.859l-3.665 10.069c-1.416 3.891.59 8.193 4.48 9.609 3.907 1.421 8.199-.605 9.609-4.48l3.66-10.056c5.808 2.381 11.474 5.037 16.985 7.951l-5.336 9.243c-2.07 3.585-.842 8.17 2.744 10.241 3.57 2.062 8.161.858 10.241-2.744l5.324-9.221c5.292 3.347 10.411 6.943 15.34 10.773l-6.827 8.137c-2.661 3.171-2.248 7.9.924 10.562 3.193 2.678 7.918 2.227 10.562-.924l6.82-8.127c4.625 4.202 9.047 8.625 13.249 13.251z"/>
	</g>
</svg>